<svg width="20" height="20" viewBox="0 0 20 20" fill="none" xmlns="http://www.w3.org/2000/svg">
<path d="M18.0074 7.56251L13.0484 6.8418L10.8316 2.34766C10.7711 2.22462 10.6715 2.12501 10.5484 2.06446C10.2398 1.91212 9.86481 2.03907 9.71052 2.34766L7.49372 6.8418L2.53474 7.56251C2.39802 7.58204 2.27302 7.64649 2.17731 7.74415C2.06161 7.86307 1.99786 8.02305 2.00005 8.18896C2.00225 8.35486 2.07022 8.5131 2.18903 8.62891L5.77692 12.127L4.92927 17.0664C4.90939 17.1813 4.9221 17.2995 4.96597 17.4075C5.00984 17.5156 5.0831 17.6092 5.17745 17.6777C5.2718 17.7462 5.38346 17.7869 5.49977 17.7952C5.61609 17.8035 5.7324 17.7791 5.83552 17.7246L10.2711 15.3926L14.7066 17.7246C14.8277 17.7891 14.9683 17.8106 15.1031 17.7871C15.4429 17.7285 15.6715 17.4063 15.6129 17.0664L14.7652 12.127L18.3531 8.62891C18.4508 8.53321 18.5152 8.40821 18.5347 8.27149C18.5875 7.92969 18.3492 7.61329 18.0074 7.56251V7.56251Z" fill="#D1D1D1"/>
</svg>
